<?xml version="1.0" standalone="no"?>
<!DOCTYPE svg PUBLIC "-//W3C//DTD SVG 20010904//EN"
 "http://www.w3.org/TR/2001/REC-SVG-20010904/DTD/svg10.dtd">
<svg version="1.0" xmlns="http://www.w3.org/2000/svg"
 width="1668.000000pt" height="1491.000000pt" viewBox="0 0 1668.000000 1491.000000"
 preserveAspectRatio="xMidYMid meet">
<metadata>
Created by potrace 1.16, written by Peter Selinger 2001-2019
</metadata>
<g transform="translate(0.000000,1491.000000) scale(0.100000,-0.100000)"
fill="#000000" stroke="none">
<path d="M0 7455 l0 -7455 8340 0 8340 0 0 7455 0 7455 -8340 0 -8340 0 0
-7455z m9650 5399 c0 -3 -31 -78 -69 -167 -37 -89 -102 -243 -144 -342 -41
-99 -111 -265 -155 -370 -44 -104 -153 -363 -242 -575 -89 -212 -197 -468
-240 -570 -43 -102 -121 -288 -175 -415 -53 -126 -137 -327 -187 -445 -50
-118 -122 -289 -160 -380 -38 -91 -96 -228 -128 -305 -198 -471 -233 -554
-247 -587 l-16 -38 -169 0 c-93 0 -168 4 -168 9 0 9 14 43 165 401 41 96 106
252 145 345 39 94 75 179 80 190 5 11 41 97 80 190 39 94 75 179 80 190 11 25
231 547 370 880 39 94 75 179 80 190 22 50 44 101 110 260 39 94 75 179 80
190 5 11 33 79 63 150 91 217 235 561 307 730 38 88 91 214 118 280 28 66 58
137 66 158 l16 37 170 0 c94 0 170 -3 170 -6z m-2810 -247 l0 -244 -192 -188
c-106 -103 -469 -462 -806 -798 l-612 -612 805 -805 805 -805 0 -245 0 -245
-147 146 c-82 80 -557 552 -1057 1050 l-908 904 1048 1043 c577 573 1052 1042
1056 1042 4 0 8 -110 8 -243z m4579 -796 c573 -568 1041 -1039 1041 -1046 0
-12 -2072 -2076 -2091 -2083 -5 -2 -9 95 -9 237 l0 241 806 802 806 803 -806
801 -806 802 0 242 c0 138 4 240 9 238 5 -1 477 -468 1050 -1037z m536 -4485
c184 -37 306 -97 416 -206 169 -167 256 -416 275 -783 l7 -127 -394 2 -394 3
-5 162 c-4 143 -7 165 -26 189 -54 73 -143 94 -223 52 -72 -37 -86 -64 -85
-168 0 -81 3 -95 37 -162 48 -98 121 -179 439 -483 355 -339 451 -451 538
-623 89 -177 130 -372 130 -617 0 -556 -153 -912 -455 -1059 -116 -57 -217
-78 -400 -84 -252 -7 -455 31 -620 116 -102 53 -228 182 -281 287 -102 204
-138 429 -132 845 l3 225 355 3 c195 1 365 0 378 -3 l22 -5 0 -273 c0 -353 11
-404 101 -465 29 -20 44 -23 101 -20 61 3 71 7 102 37 62 61 81 203 51 391
-19 116 -54 211 -108 293 -24 36 -174 197 -357 382 -174 176 -345 354 -381
396 -214 254 -297 542 -258 897 28 264 105 446 249 593 164 167 362 233 675
225 88 -3 196 -12 240 -20z m-8631 -38 c7 -32 22 -135 46 -318 11 -85 27 -200
35 -255 29 -204 45 -324 65 -475 11 -85 23 -168 26 -185 2 -16 11 -79 19 -140
8 -60 21 -159 30 -220 8 -60 22 -157 29 -215 33 -242 56 -408 64 -450 l8 -45
12 70 c6 39 21 140 32 225 11 85 25 182 30 215 5 33 14 96 19 140 11 86 40
300 66 485 19 132 37 265 59 430 59 435 97 715 102 738 l4 22 590 0 590 0 0
-1930 0 -1930 -347 2 -348 3 -5 1365 c-6 1516 0 1421 -60 1035 -11 -71 -25
-155 -30 -185 -6 -30 -15 -84 -20 -120 -5 -36 -25 -166 -45 -290 -41 -253 -56
-350 -79 -495 -9 -55 -23 -140 -30 -190 -22 -132 -85 -526 -101 -630 -38 -238
-46 -287 -60 -379 -9 -54 -18 -102 -21 -107 -7 -12 -681 -12 -688 0 -3 4 -12
48 -20 97 -8 49 -31 184 -51 299 -20 116 -43 248 -50 295 -8 47 -30 180 -50
295 -20 116 -40 235 -45 265 -5 30 -25 150 -45 265 -20 116 -43 248 -50 295
-8 47 -30 180 -50 295 -20 116 -43 248 -50 295 -16 99 -41 238 -52 295 -4 22
-10 -576 -13 -1330 l-5 -1370 -340 0 -340 0 -3 1928 -2 1927 585 0 585 0 4
-22z m4070 -35 c3 -32 13 -130 21 -218 38 -388 46 -479 60 -625 26 -282 45
-474 55 -580 6 -58 17 -175 25 -260 8 -85 19 -202 25 -260 10 -106 29 -298 55
-580 18 -192 38 -400 65 -680 12 -118 25 -267 31 -330 5 -63 14 -146 19 -185
5 -38 6 -73 1 -78 -4 -4 -169 -6 -367 -5 l-359 3 -7 75 c-4 41 -14 158 -23
260 -8 102 -18 206 -21 233 l-7 47 -228 0 c-125 0 -230 -4 -233 -8 -3 -5 -12
-114 -21 -243 -9 -129 -19 -263 -23 -299 l-7 -65 -364 -3 c-201 -1 -369 2
-373 6 -5 5 -4 56 1 113 6 57 20 201 31 319 11 118 27 284 35 368 8 83 22 222
30 307 26 265 45 459 60 617 8 84 23 248 35 363 11 116 27 280 35 365 8 85 21
225 30 310 8 85 22 223 30 305 26 285 59 617 71 733 l5 52 653 0 653 0 7 -57z
m1710 35 c19 -92 31 -154 76 -388 28 -146 57 -296 65 -335 8 -38 23 -122 35
-185 12 -63 27 -146 35 -185 18 -89 102 -527 111 -580 4 -22 10 -47 15 -55 5
-8 9 375 10 853 1 477 2 873 3 880 1 9 84 13 374 15 l372 2 -2 -1927 -3 -1928
-371 -3 c-347 -2 -372 -1 -379 15 -5 14 -67 314 -102 493 -72 367 -266 1330
-271 1345 -4 11 -9 -401 -12 -915 l-5 -935 -369 -3 c-289 -2 -371 1 -378 10
-9 15 -11 3808 -2 3832 5 14 50 16 400 16 l394 0 4 -22z m4756 16 c0 -4 38
-237 85 -518 46 -281 92 -562 102 -623 10 -62 21 -113 25 -113 9 0 7 -7 83
455 36 220 69 425 75 455 18 99 42 244 48 295 l7 50 383 3 c210 1 382 -1 382
-4 0 -4 -16 -75 -36 -158 -20 -83 -52 -216 -71 -296 -19 -80 -45 -190 -58
-245 -45 -189 -95 -400 -116 -490 -11 -49 -25 -106 -30 -125 -5 -19 -25 -102
-45 -185 -41 -173 -77 -326 -104 -440 -62 -262 -92 -388 -106 -450 -9 -38 -21
-83 -27 -100 -9 -21 -13 -228 -17 -695 l-5 -665 -360 0 -360 0 -5 660 c-4 465
-9 669 -17 690 -6 17 -28 100 -48 185 -19 85 -47 200 -60 255 -13 55 -36 150
-50 210 -14 61 -34 146 -45 190 -11 44 -31 130 -45 190 -14 61 -30 119 -35
130 -5 11 -11 39 -14 62 -4 23 -22 109 -42 190 -77 325 -139 583 -185 778 -17
72 -39 165 -50 207 -10 43 -19 84 -19 93 0 13 46 15 380 15 209 0 380 -3 380
-6z"/>
<path d="M6706 6638 c-3 -13 -7 -63 -11 -113 -3 -49 -13 -182 -21 -295 -16
-218 -34 -472 -59 -815 -8 -115 -19 -264 -24 -330 -6 -66 -13 -167 -16 -225
-3 -58 -8 -117 -11 -132 l-6 -28 177 0 176 0 -6 73 c-3 39 -13 144 -20 232 -8
88 -21 239 -30 335 -8 96 -20 229 -26 295 -5 66 -16 194 -24 285 -51 596 -62
718 -71 731 -10 16 -24 10 -28 -13z"/>
</g>
</svg>
