<?xml version="1.0" encoding="UTF-8"?>
<svg width="1001px" height="1001px" viewBox="0 0 1001 1001" version="1.1" xmlns="http://www.w3.org/2000/svg" xmlns:xlink="http://www.w3.org/1999/xlink">
    <!-- Generator: Sketch 55.1 (78136) - https://sketchapp.com -->
    <title>编组 106</title>
    <desc>Created with Sketch.</desc>
    <g id="上传" stroke="none" stroke-width="1" fill="none" fill-rule="evenodd">
        <g id="5" transform="translate(-8687.000000, -4768.000000)">
            <g id="编组-106" transform="translate(8687.777778, 4769.000000)">
                <rect id="矩形备份-80" x="0" y="0" width="1000" height="1000"></rect>
                <g id="Finance__x2F__Money" transform="translate(162.000000, 111.000000)" fill-rule="nonzero">
                    <g id="calculator">
                        <path d="M638,22.5144695 C638,8.70059164 629.300682,0 615.482353,0 L27.5215686,0 C13.7032392,0 0,8.70059164 0,22.5144695 L0,340.21865 L638,340.21865 L638,22.5144695 Z" id="路径" fill="#32485D"></path>
                        <path d="M638,57.5369775 C638,43.7230997 629.300682,35.022508 615.482353,35.022508 L27.5215686,35.022508 C13.7032392,35.022508 0,43.7230997 0,57.5369775 L0,375.241158 L638,375.241158 L638,57.5369775 Z" id="路径" fill="#2A3E4E"></path>
                        <path d="M0,295.189711 L0,750.482315 C0,764.296193 13.7032392,778 27.5215686,778 L615.482353,778 C629.300682,778 638,764.296193 638,750.482315 L638,295.189711 L0,295.189711 Z" id="路径" fill="#32485D"></path>
                        <path d="M600.470588,685.440514 C600.470588,699.256894 589.26931,710.456592 575.45098,710.456592 L470.368627,710.456592 C456.550298,710.456592 445.34902,699.256894 445.34902,685.440514 L445.34902,387.749196 C445.34902,373.932817 456.550298,362.733119 470.368627,362.733119 L575.45098,362.733119 C589.26931,362.733119 600.470588,373.932817 600.470588,387.749196 L600.470588,685.440514 Z" id="路径" fill="#EE483C"></path>
                        <path d="M220.172549,492.81672 C220.172549,506.6331 208.971271,517.832797 195.152941,517.832797 L90.0705882,517.832797 C76.2522588,517.832797 65.0509804,506.6331 65.0509804,492.81672 L65.0509804,387.749196 C65.0509804,373.932817 76.2522588,362.733119 90.0705882,362.733119 L195.152941,362.733119 C208.971271,362.733119 220.172549,373.932817 220.172549,387.749196 L220.172549,492.81672 Z" id="路径" fill="#ECF0F1"></path>
                        <path d="M220.172549,685.440514 C220.172549,699.256894 208.971271,710.456592 195.152941,710.456592 L90.0705882,710.456592 C76.2522588,710.456592 65.0509804,699.256894 65.0509804,685.440514 L65.0509804,580.37299 C65.0509804,566.556611 76.2522588,555.356913 90.0705882,555.356913 L195.152941,555.356913 C208.971271,555.356913 220.172549,566.556611 220.172549,580.37299 L220.172549,685.440514 Z" id="路径" fill="#ECF0F1"></path>
                        <path d="M410.321569,492.81672 C410.321569,506.6331 399.12029,517.832797 385.301961,517.832797 L280.219608,517.832797 C266.401278,517.832797 255.2,506.6331 255.2,492.81672 L255.2,387.749196 C255.2,373.932817 266.401278,362.733119 280.219608,362.733119 L385.301961,362.733119 C399.12029,362.733119 410.321569,373.932817 410.321569,387.749196 L410.321569,492.81672 Z" id="路径" fill="#ECF0F1"></path>
                        <path d="M410.321569,685.440514 C410.321569,699.256894 399.12029,710.456592 385.301961,710.456592 L280.219608,710.456592 C266.401278,710.456592 255.2,699.256894 255.2,685.440514 L255.2,580.37299 C255.2,566.556611 266.401278,555.356913 280.219608,555.356913 L385.301961,555.356913 C399.12029,555.356913 410.321569,566.556611 410.321569,580.37299 L410.321569,685.440514 Z" id="路径" fill="#ECF0F1"></path>
                        <path d="M592.964706,230.14791 C592.964706,243.964289 581.763427,255.163987 567.945098,255.163987 L70.054902,255.163987 C56.2365725,255.163987 45.0352941,243.964289 45.0352941,230.14791 L45.0352941,100.064309 C45.0352941,86.2479293 56.2365725,75.0482315 70.054902,75.0482315 L567.945098,75.0482315 C581.763427,75.0482315 592.964706,86.2479293 592.964706,100.064309 L592.964706,230.14791 Z" id="路径" fill="#2CBD9F"></path>
                        <path d="M197.654902,362.733119 L142.611765,362.733119 L142.611765,517.832797 L197.654902,517.832797 C211.473231,517.832797 220.172549,504.12899 220.172549,490.315113 L220.172549,385.247588 C220.172549,371.433711 211.473231,362.733119 197.654902,362.733119 Z" id="路径" fill="#BDC3C7"></path>
                        <path d="M197.654902,710.456592 C211.473231,710.456592 220.172549,696.752785 220.172549,682.938907 L220.172549,577.871383 C220.172549,564.057505 211.473231,555.356913 197.654902,555.356913 L142.611765,555.356913 L142.611765,710.456592 L197.654902,710.456592 Z" id="路径" fill="#BDC3C7"></path>
                        <path d="M410.321569,490.315113 L410.321569,385.247588 C410.321569,371.433711 401.622251,362.733119 387.803922,362.733119 L332.760784,362.733119 L332.760784,517.832797 L387.803922,517.832797 C401.622251,517.832797 410.321569,504.12899 410.321569,490.315113 Z" id="路径" fill="#BDC3C7"></path>
                        <path d="M387.803922,710.456592 C401.622251,710.456592 410.321569,696.752785 410.321569,682.938907 L410.321569,577.871383 C410.321569,564.057505 401.622251,555.356913 387.803922,555.356913 L332.760784,555.356913 L332.760784,710.456592 L387.803922,710.456592 Z" id="路径" fill="#BDC3C7"></path>
                        <path d="M577.952941,362.733119 L522.909804,362.733119 L522.909804,710.456592 L577.952941,710.456592 C591.771271,710.456592 600.470588,696.752785 600.470588,682.938907 L600.470588,385.247588 C600.470588,371.433711 591.771271,362.733119 577.952941,362.733119 Z" id="路径" fill="#C6352B"></path>
                        <path d="M570.447059,75.0482315 L317.74902,75.0482315 L317.74902,255.163987 L570.447059,255.163987 C584.207843,255.163987 592.964706,241.405145 592.964706,227.646302 L592.964706,97.562701 C592.964706,83.8038585 584.207843,75.0482315 570.447059,75.0482315 Z" id="路径" fill="#24A187"></path>
                        <path d="M182.643137,425.273312 L157.623529,425.273312 L157.623529,400.257235 C157.623529,391.276463 150.342824,383.996785 141.360784,383.996785 C132.378745,383.996785 125.098039,391.276463 125.098039,400.257235 L125.098039,425.273312 L107.584314,425.273312 C98.6022745,425.273312 91.3215686,432.55299 91.3215686,441.533762 C91.3215686,450.514534 98.6022745,457.794212 107.584314,457.794212 L125.098039,457.794212 L125.098039,475.305466 C125.098039,484.286238 132.378745,491.565916 141.360784,491.565916 C150.342824,491.565916 157.623529,484.286238 157.623529,475.305466 L157.623529,457.794212 L182.643137,457.794212 C191.625176,457.794212 198.905882,450.514534 198.905882,441.533762 C198.905882,432.55299 191.625176,425.273312 182.643137,425.273312 Z" id="路径" fill="#32485D"></path>
                        <path d="M182.267843,651.328592 L166.342863,635.40836 L182.265341,619.49063 C188.615318,613.139048 188.615318,602.844932 182.265341,596.49335 C175.912863,590.14427 165.617294,590.14427 159.264816,596.49335 L143.344839,612.413582 L129.193749,598.261987 C122.841271,591.912907 112.545702,591.912907 106.193224,598.261987 C99.8432471,604.613569 99.8432471,614.907685 106.193224,621.259267 L120.346816,635.40836 L106.193224,649.559955 C99.8432471,655.909035 99.8432471,666.203151 106.193224,672.554733 C112.545702,678.903814 122.841271,678.903814 129.191247,672.554733 L143.344839,658.403138 L159.264816,674.32337 C165.617294,680.67245 175.912863,680.67245 182.265341,674.32337 C188.61782,667.974289 188.61782,657.677672 182.267843,651.328592 Z" id="路径" fill="#32485D"></path>
                        <path d="M281.470588,444.03537 C281.470588,435.054598 288.751294,427.77492 297.733333,427.77492 L372.792157,427.77492 C381.774196,427.77492 389.054902,435.054598 389.054902,444.03537 C389.054902,453.016141 381.774196,460.29582 372.792157,460.29582 L297.733333,460.29582 C288.751294,460.29582 281.470588,453.016141 281.470588,444.03537 Z" id="路径" fill="#32485D"></path>
                        <path d="M471.619608,556.607717 C471.619608,547.626945 478.900314,540.347267 487.882353,540.347267 L562.941176,540.347267 C571.923216,540.347267 579.203922,547.626945 579.203922,556.607717 C579.203922,565.588489 571.923216,572.868167 562.941176,572.868167 L487.882353,572.868167 C478.900314,572.868167 471.619608,565.588489 471.619608,556.607717 Z" id="路径" fill="#ECF0F1"></path>
                        <path d="M471.619608,516.581994 C471.619608,507.601222 478.900314,500.321543 487.882353,500.321543 L562.941176,500.321543 C571.923216,500.321543 579.203922,507.601222 579.203922,516.581994 C579.203922,525.562765 571.923216,532.842444 562.941176,532.842444 L487.882353,532.842444 C478.900314,532.842444 471.619608,525.562765 471.619608,516.581994 Z" id="路径" fill="#ECF0F1"></path>
                        <path d="M281.470588,634.157556 C281.470588,625.176785 288.751294,617.897106 297.733333,617.897106 L372.792157,617.897106 C381.774196,617.897106 389.054902,625.176785 389.054902,634.157556 C389.054902,643.138328 381.774196,650.418006 372.792157,650.418006 L297.733333,650.418006 C288.751294,650.418006 281.470588,643.138328 281.470588,634.157556 Z" id="路径" fill="#32485D"></path>
                        <ellipse id="椭圆形" fill="#32485D" cx="335.680573" cy="587.877814" rx="15.4295922" ry="15.4274148"></ellipse>
                        <ellipse id="椭圆形" fill="#32485D" cx="335.680573" cy="675.434084" rx="15.4295922" ry="15.4274148"></ellipse>
                    </g>
                </g>
            </g>
        </g>
    </g>
</svg>