<?xml version="1.0" ?>
<!-- Uploaded to: SVG Repo, www.svgrepo.com, Generator: SVG Repo Mixer Tools -->
<svg width="800px" height="800px" viewBox="0 0 32 32" xmlns="http://www.w3.org/2000/svg">
<defs>
<style>.cls-1{fill:#04009a;}.cls-2{fill:#77acf1;}</style>
</defs>
<g data-name="34. Health Care" id="_34._Health_Care">
<path class="cls-1" d="M31.47,16.11a5,5,0,0,0-6.53.87l-3.2,3.65A4,4,0,0,0,18,18h-.93a2.54,2.54,0,0,1-1.41-.43A9.38,9.38,0,0,0,3.84,18.74L.29,22.29a1,1,0,0,0,1.42,1.42l3.55-3.55a7.35,7.35,0,0,1,9.29-.92,4.52,4.52,0,0,0,2.52.76H18a2,2,0,0,1,2,2H13a1,1,0,0,0,0,2h8a1,1,0,0,0,.74-.35h0l4.69-5.36a3,3,0,0,1,3-.92L22.4,26.8A3,3,0,0,1,20,28H11.66a5,5,0,0,0-3.54,1.46l-.83.83a1,1,0,0,0,0,1.42,1,1,0,0,0,1.42,0l.83-.83A3,3,0,0,1,11.66,30H20a5,5,0,0,0,4-2l7.8-10.4a1.1,1.1,0,0,0,.15-.8A1.16,1.16,0,0,0,31.47,16.11Z"/>
<path class="cls-2" d="M22,14H18a1,1,0,0,1-1-1V10H14a1,1,0,0,1-1-1V5a1,1,0,0,1,1-1h3V1a1,1,0,0,1,1-1h4a1,1,0,0,1,1,1V4h3a1,1,0,0,1,1,1V9a1,1,0,0,1-1,1H23v3A1,1,0,0,1,22,14Zm-3-2h2V9a1,1,0,0,1,1-1h3V6H22a1,1,0,0,1-1-1V2H19V5a1,1,0,0,1-1,1H15V8h3a1,1,0,0,1,1,1Z"/>
</g>
</svg>